<mxfile host="app.diagrams.net" modified="2021-12-28T06:40:33.466Z" agent="5.0 (Windows NT 10.0; Win64; x64) AppleWebKit/537.36 (KHTML, like Gecko) Chrome/96.0.4664.110 Safari/537.36 Edg/96.0.1054.62" etag="WX4FUw74rcNcVQds2g2R" version="16.1.0" type="github">
  <diagram id="Gmw81Pph0UxKFFsg_AUV" name="第 1 页">
    <mxGraphModel dx="1422" dy="762" grid="1" gridSize="10" guides="1" tooltips="1" connect="1" arrows="1" fold="1" page="1" pageScale="1" pageWidth="827" pageHeight="1169" math="0" shadow="0">
      <root>
        <mxCell id="0" />
        <mxCell id="1" parent="0" />
        <mxCell id="fH_rTW11sBxWev0FyLKV-17" value="GeofenceTaskDTO" style="swimlane;fontStyle=0;childLayout=stackLayout;horizontal=1;startSize=26;horizontalStack=0;resizeParent=1;resizeParentMax=0;resizeLast=0;collapsible=1;marginBottom=0;align=center;fontSize=14;" vertex="1" parent="1">
          <mxGeometry x="310" y="180" width="160" height="746" as="geometry">
            <mxRectangle x="310" y="180" width="150" height="26" as="alternateBounds" />
          </mxGeometry>
        </mxCell>
        <mxCell id="fH_rTW11sBxWev0FyLKV-24" value="id " style="text;strokeColor=none;fillColor=none;spacingLeft=4;spacingRight=4;overflow=hidden;rotatable=0;points=[[0,0.5],[1,0.5]];portConstraint=eastwest;fontSize=12;" vertex="1" parent="fH_rTW11sBxWev0FyLKV-17">
          <mxGeometry y="26" width="160" height="30" as="geometry" />
        </mxCell>
        <mxCell id="fH_rTW11sBxWev0FyLKV-20" value="status" style="text;strokeColor=none;fillColor=none;spacingLeft=4;spacingRight=4;overflow=hidden;rotatable=0;points=[[0,0.5],[1,0.5]];portConstraint=eastwest;fontSize=12;" vertex="1" parent="fH_rTW11sBxWev0FyLKV-17">
          <mxGeometry y="56" width="160" height="30" as="geometry" />
        </mxCell>
        <mxCell id="fH_rTW11sBxWev0FyLKV-18" value="startTime" style="text;strokeColor=none;fillColor=none;spacingLeft=4;spacingRight=4;overflow=hidden;rotatable=0;points=[[0,0.5],[1,0.5]];portConstraint=eastwest;fontSize=12;" vertex="1" parent="fH_rTW11sBxWev0FyLKV-17">
          <mxGeometry y="86" width="160" height="30" as="geometry" />
        </mxCell>
        <mxCell id="fH_rTW11sBxWev0FyLKV-19" value="endTime" style="text;strokeColor=none;fillColor=none;spacingLeft=4;spacingRight=4;overflow=hidden;rotatable=0;points=[[0,0.5],[1,0.5]];portConstraint=eastwest;fontSize=12;" vertex="1" parent="fH_rTW11sBxWev0FyLKV-17">
          <mxGeometry y="116" width="160" height="30" as="geometry" />
        </mxCell>
        <mxCell id="fH_rTW11sBxWev0FyLKV-25" value="liveTime" style="text;strokeColor=none;fillColor=none;spacingLeft=4;spacingRight=4;overflow=hidden;rotatable=0;points=[[0,0.5],[1,0.5]];portConstraint=eastwest;fontSize=12;" vertex="1" parent="fH_rTW11sBxWev0FyLKV-17">
          <mxGeometry y="146" width="160" height="30" as="geometry" />
        </mxCell>
        <mxCell id="fH_rTW11sBxWev0FyLKV-27" value="loop" style="text;strokeColor=none;fillColor=none;spacingLeft=4;spacingRight=4;overflow=hidden;rotatable=0;points=[[0,0.5],[1,0.5]];portConstraint=eastwest;fontSize=12;" vertex="1" parent="fH_rTW11sBxWev0FyLKV-17">
          <mxGeometry y="176" width="160" height="30" as="geometry" />
        </mxCell>
        <mxCell id="fH_rTW11sBxWev0FyLKV-28" value="orderCnt" style="text;strokeColor=none;fillColor=none;spacingLeft=4;spacingRight=4;overflow=hidden;rotatable=0;points=[[0,0.5],[1,0.5]];portConstraint=eastwest;fontSize=12;" vertex="1" parent="fH_rTW11sBxWev0FyLKV-17">
          <mxGeometry y="206" width="160" height="30" as="geometry" />
        </mxCell>
        <mxCell id="fH_rTW11sBxWev0FyLKV-29" value="publisher" style="text;strokeColor=none;fillColor=none;spacingLeft=4;spacingRight=4;overflow=hidden;rotatable=0;points=[[0,0.5],[1,0.5]];portConstraint=eastwest;fontSize=12;" vertex="1" parent="fH_rTW11sBxWev0FyLKV-17">
          <mxGeometry y="236" width="160" height="30" as="geometry" />
        </mxCell>
        <mxCell id="fH_rTW11sBxWev0FyLKV-30" value="kind" style="text;strokeColor=none;fillColor=none;spacingLeft=4;spacingRight=4;overflow=hidden;rotatable=0;points=[[0,0.5],[1,0.5]];portConstraint=eastwest;fontSize=12;" vertex="1" parent="fH_rTW11sBxWev0FyLKV-17">
          <mxGeometry y="266" width="160" height="30" as="geometry" />
        </mxCell>
        <mxCell id="fH_rTW11sBxWev0FyLKV-31" value="code" style="text;strokeColor=none;fillColor=none;spacingLeft=4;spacingRight=4;overflow=hidden;rotatable=0;points=[[0,0.5],[1,0.5]];portConstraint=eastwest;fontSize=12;" vertex="1" parent="fH_rTW11sBxWev0FyLKV-17">
          <mxGeometry y="296" width="160" height="30" as="geometry" />
        </mxCell>
        <mxCell id="fH_rTW11sBxWev0FyLKV-32" value="providerId" style="text;strokeColor=none;fillColor=none;spacingLeft=4;spacingRight=4;overflow=hidden;rotatable=0;points=[[0,0.5],[1,0.5]];portConstraint=eastwest;fontSize=12;" vertex="1" parent="fH_rTW11sBxWev0FyLKV-17">
          <mxGeometry y="326" width="160" height="30" as="geometry" />
        </mxCell>
        <mxCell id="fH_rTW11sBxWev0FyLKV-33" value="accuracyType" style="text;strokeColor=none;fillColor=none;spacingLeft=4;spacingRight=4;overflow=hidden;rotatable=0;points=[[0,0.5],[1,0.5]];portConstraint=eastwest;fontSize=12;" vertex="1" parent="fH_rTW11sBxWev0FyLKV-17">
          <mxGeometry y="356" width="160" height="30" as="geometry" />
        </mxCell>
        <mxCell id="fH_rTW11sBxWev0FyLKV-34" value="pipelineType" style="text;strokeColor=none;fillColor=none;spacingLeft=4;spacingRight=4;overflow=hidden;rotatable=0;points=[[0,0.5],[1,0.5]];portConstraint=eastwest;fontSize=12;" vertex="1" parent="fH_rTW11sBxWev0FyLKV-17">
          <mxGeometry y="386" width="160" height="30" as="geometry" />
        </mxCell>
        <mxCell id="fH_rTW11sBxWev0FyLKV-35" value="uploadType" style="text;strokeColor=none;fillColor=none;spacingLeft=4;spacingRight=4;overflow=hidden;rotatable=0;points=[[0,0.5],[1,0.5]];portConstraint=eastwest;fontSize=12;" vertex="1" parent="fH_rTW11sBxWev0FyLKV-17">
          <mxGeometry y="416" width="160" height="30" as="geometry" />
        </mxCell>
        <mxCell id="fH_rTW11sBxWev0FyLKV-26" value="trackProvider" style="text;strokeColor=none;fillColor=none;spacingLeft=4;spacingRight=4;overflow=hidden;rotatable=0;points=[[0,0.5],[1,0.5]];portConstraint=eastwest;fontSize=12;" vertex="1" parent="fH_rTW11sBxWev0FyLKV-17">
          <mxGeometry y="446" width="160" height="30" as="geometry" />
        </mxCell>
        <mxCell id="fH_rTW11sBxWev0FyLKV-37" value="intervalType" style="text;strokeColor=none;fillColor=none;spacingLeft=4;spacingRight=4;overflow=hidden;rotatable=0;points=[[0,0.5],[1,0.5]];portConstraint=eastwest;fontSize=12;" vertex="1" parent="fH_rTW11sBxWev0FyLKV-17">
          <mxGeometry y="476" width="160" height="30" as="geometry" />
        </mxCell>
        <mxCell id="fH_rTW11sBxWev0FyLKV-38" value="intervalValue" style="text;strokeColor=none;fillColor=none;spacingLeft=4;spacingRight=4;overflow=hidden;rotatable=0;points=[[0,0.5],[1,0.5]];portConstraint=eastwest;fontSize=12;" vertex="1" parent="fH_rTW11sBxWev0FyLKV-17">
          <mxGeometry y="506" width="160" height="30" as="geometry" />
        </mxCell>
        <mxCell id="fH_rTW11sBxWev0FyLKV-39" value="compositeTimeList" style="text;strokeColor=none;fillColor=none;spacingLeft=4;spacingRight=4;overflow=hidden;rotatable=0;points=[[0,0.5],[1,0.5]];portConstraint=eastwest;fontSize=12;" vertex="1" parent="fH_rTW11sBxWev0FyLKV-17">
          <mxGeometry y="536" width="160" height="30" as="geometry" />
        </mxCell>
        <mxCell id="fH_rTW11sBxWev0FyLKV-36" value="shapeType" style="text;strokeColor=none;fillColor=none;spacingLeft=4;spacingRight=4;overflow=hidden;rotatable=0;points=[[0,0.5],[1,0.5]];portConstraint=eastwest;fontSize=12;" vertex="1" parent="fH_rTW11sBxWev0FyLKV-17">
          <mxGeometry y="566" width="160" height="30" as="geometry" />
        </mxCell>
        <mxCell id="fH_rTW11sBxWev0FyLKV-41" value="geom" style="text;strokeColor=none;fillColor=none;spacingLeft=4;spacingRight=4;overflow=hidden;rotatable=0;points=[[0,0.5],[1,0.5]];portConstraint=eastwest;fontSize=12;" vertex="1" parent="fH_rTW11sBxWev0FyLKV-17">
          <mxGeometry y="596" width="160" height="30" as="geometry" />
        </mxCell>
        <mxCell id="fH_rTW11sBxWev0FyLKV-42" value="centerLine" style="text;strokeColor=none;fillColor=none;spacingLeft=4;spacingRight=4;overflow=hidden;rotatable=0;points=[[0,0.5],[1,0.5]];portConstraint=eastwest;fontSize=12;" vertex="1" parent="fH_rTW11sBxWev0FyLKV-17">
          <mxGeometry y="626" width="160" height="30" as="geometry" />
        </mxCell>
        <mxCell id="fH_rTW11sBxWev0FyLKV-43" value="geoRadius" style="text;strokeColor=none;fillColor=none;spacingLeft=4;spacingRight=4;overflow=hidden;rotatable=0;points=[[0,0.5],[1,0.5]];portConstraint=eastwest;fontSize=12;" vertex="1" parent="fH_rTW11sBxWev0FyLKV-17">
          <mxGeometry y="656" width="160" height="30" as="geometry" />
        </mxCell>
        <mxCell id="fH_rTW11sBxWev0FyLKV-44" value="trackLength" style="text;strokeColor=none;fillColor=none;spacingLeft=4;spacingRight=4;overflow=hidden;rotatable=0;points=[[0,0.5],[1,0.5]];portConstraint=eastwest;fontSize=12;" vertex="1" parent="fH_rTW11sBxWev0FyLKV-17">
          <mxGeometry y="686" width="160" height="30" as="geometry" />
        </mxCell>
        <mxCell id="fH_rTW11sBxWev0FyLKV-40" value="createTime" style="text;strokeColor=none;fillColor=none;spacingLeft=4;spacingRight=4;overflow=hidden;rotatable=0;points=[[0,0.5],[1,0.5]];portConstraint=eastwest;fontSize=12;" vertex="1" parent="fH_rTW11sBxWev0FyLKV-17">
          <mxGeometry y="716" width="160" height="30" as="geometry" />
        </mxCell>
      </root>
    </mxGraphModel>
  </diagram>
</mxfile>
